<svg width="16" height="16" viewBox="0 0 16 16" fill="none" xmlns="http://www.w3.org/2000/svg">
<path fill-rule="evenodd" clip-rule="evenodd" d="M6.97344 0.833252H9.02591C10.0948 0.833248 10.9328 0.833244 11.6023 0.896897C12.2846 0.961777 12.8434 1.0963 13.3359 1.39813C13.8517 1.71421 14.2854 2.14788 14.6015 2.66367C14.9033 3.15622 15.0378 3.71496 15.1027 4.39732C15.1663 5.06678 15.1663 5.90475 15.1663 6.97367V7.68515C15.1663 8.44601 15.1663 9.04256 15.1335 9.52447C15.1 10.0148 15.0309 10.4228 14.8745 10.8002C14.4855 11.7395 13.7392 12.4857 12.8 12.8748C12.2633 13.0971 11.6521 13.1464 10.8152 13.1608C10.5225 13.1659 10.3371 13.1696 10.1957 13.1852C10.0637 13.1998 10.0125 13.2213 9.9825 13.2387C9.95089 13.2571 9.90783 13.2906 9.83308 13.3931C9.75217 13.5042 9.66075 13.6576 9.51578 13.9025L9.15439 14.5131C8.63867 15.3844 7.36065 15.3844 6.84493 14.5131L6.48354 13.9025C6.33857 13.6576 6.24715 13.5042 6.16624 13.3931C6.09149 13.2906 6.04843 13.2571 6.01682 13.2387C5.98686 13.2213 5.93567 13.1998 5.8036 13.1852C5.66225 13.1696 5.47684 13.1659 5.18411 13.1608C4.34726 13.1464 3.73604 13.0971 3.19939 12.8748C2.26011 12.4857 1.51386 11.7395 1.1248 10.8002C0.968494 10.4228 0.899338 10.0148 0.865885 9.52447C0.833004 9.04256 0.833006 8.44601 0.833008 7.68514L0.833008 6.97368C0.833004 5.90476 0.833 5.06678 0.896653 4.39732C0.961533 3.71496 1.09605 3.15622 1.39789 2.66367C1.71397 2.14788 2.14763 1.71421 2.66343 1.39813C3.15598 1.0963 3.71471 0.961777 4.39708 0.896897C5.06654 0.833244 5.90451 0.833248 6.97344 0.833252ZM4.49173 1.89241C3.88256 1.95033 3.49495 2.06141 3.18593 2.25077C2.80469 2.4844 2.48415 2.80493 2.25053 3.18617C2.06116 3.49519 1.95008 3.88281 1.89216 4.49198C1.83354 5.10859 1.83301 5.89909 1.83301 6.99992V7.66659C1.83301 8.45 1.83328 9.01251 1.86356 9.4564C1.89354 9.8958 1.95126 10.1823 2.04868 10.4175C2.33625 11.1118 2.88783 11.6633 3.58207 11.9509C3.92583 12.0933 4.36438 12.1465 5.20134 12.161L5.22255 12.1613C5.48789 12.1659 5.7204 12.1699 5.91365 12.1913C6.12132 12.2143 6.32441 12.2608 6.51958 12.3743C6.71311 12.4868 6.85269 12.6372 6.97438 12.8042C7.08682 12.9584 7.20237 13.1537 7.33325 13.3748L7.70549 14.0037C7.83399 14.2208 8.16533 14.2208 8.29383 14.0037L8.66607 13.3748C8.79695 13.1537 8.9125 12.9584 9.02494 12.8042C9.14663 12.6372 9.28621 12.4868 9.47974 12.3743C9.67491 12.2608 9.878 12.2143 10.0857 12.1913C10.2789 12.1699 10.5114 12.1659 10.7768 12.1613L10.798 12.161C11.635 12.1465 12.0735 12.0933 12.4173 11.9509C13.1115 11.6633 13.6631 11.1118 13.9507 10.4175C14.0481 10.1823 14.1058 9.8958 14.1358 9.4564C14.1661 9.01251 14.1663 8.45 14.1663 7.66659V6.99992C14.1663 5.89909 14.1658 5.10859 14.1072 4.49198C14.0493 3.88281 13.9382 3.49519 13.7488 3.18617C13.5152 2.80493 13.1947 2.4844 12.8134 2.25077C12.5044 2.06141 12.1168 1.95033 11.5076 1.89241C10.891 1.83378 10.1005 1.83325 8.99967 1.83325H6.99967C5.89885 1.83325 5.10834 1.83378 4.49173 1.89241ZM10.3532 5.64637C10.5485 5.84163 10.5485 6.15821 10.3532 6.35347L7.68656 9.02014C7.49411 9.21259 7.18308 9.21576 6.98674 9.02728L5.65341 7.74728C5.4542 7.55604 5.44774 7.23952 5.63898 7.04032C5.83022 6.84111 6.14673 6.83465 6.34594 7.02589L7.32587 7.96662L9.64612 5.64637C9.84138 5.4511 10.158 5.4511 10.3532 5.64637Z" fill="black"/>
</svg>
