<svg width="16" height="16" viewBox="0 0 16 16" fill="none" xmlns="http://www.w3.org/2000/svg">
<path d="M2.16699 2C2.16699 1.72386 2.39085 1.5 2.66699 1.5H13.3337C13.6098 1.5 13.8337 1.72386 13.8337 2C13.8337 2.27614 13.6098 2.5 13.3337 2.5H2.66699C2.39085 2.5 2.16699 2.27614 2.16699 2Z" fill="black"/>
<path d="M2.16699 14C2.16699 13.7239 2.39085 13.5 2.66699 13.5H13.3337C13.6098 13.5 13.8337 13.7239 13.8337 14C13.8337 14.2761 13.6098 14.5 13.3337 14.5H2.66699C2.39085 14.5 2.16699 14.2761 2.16699 14Z" fill="black"/>
<path d="M8.35388 3.31311C8.15862 3.11785 7.84203 3.11785 7.64677 3.31311L5.64677 5.31311C5.45151 5.50838 5.45151 5.82496 5.64677 6.02022C5.84203 6.21548 6.15862 6.21548 6.35388 6.02022L7.50033 4.87377V11.1262L6.35388 9.97978C6.15862 9.78452 5.84203 9.78452 5.64677 9.97978C5.45151 10.175 5.45151 10.4916 5.64677 10.6869L7.64677 12.6869C7.84203 12.8821 8.15862 12.8821 8.35388 12.6869L10.3539 10.6869C10.5491 10.4916 10.5491 10.175 10.3539 9.97978C10.1586 9.78452 9.84203 9.78452 9.64677 9.97978L8.50033 11.1262V4.87377L9.64677 6.02022C9.84203 6.21548 10.1586 6.21548 10.3539 6.02022C10.5491 5.82496 10.5491 5.50838 10.3539 5.31311L8.35388 3.31311Z" fill="black"/>
</svg>
