<svg width="16" height="16" viewBox="0 0 16 16" fill="none" xmlns="http://www.w3.org/2000/svg">
<path d="M7.99967 0.833252C11.9577 0.833252 15.1663 4.04188 15.1663 7.99992C15.1663 11.958 11.9577 15.1666 7.99967 15.1666C7.452 15.1666 6.91808 15.1051 6.40468 14.9883C6.13541 14.9271 5.96675 14.6592 6.02797 14.3899C6.08919 14.1207 6.3571 13.952 6.62637 14.0132C7.06753 14.1135 7.5271 14.1666 7.99967 14.1666C11.4054 14.1666 14.1663 11.4057 14.1663 7.99992C14.1663 4.59416 11.4054 1.83325 7.99967 1.83325C7.5271 1.83325 7.06753 1.88632 6.62637 1.98661C6.3571 2.04783 6.08919 1.87917 6.02797 1.6099C5.96675 1.34063 6.13541 1.07271 6.40468 1.0115C6.91808 0.894777 7.452 0.833252 7.99967 0.833252Z" fill="black"/>
<path d="M2.08766 11.1241C2.32134 10.977 2.63005 11.0471 2.77719 11.2808C3.27049 12.0643 3.93533 12.7291 4.71879 13.2224C4.95247 13.3695 5.02263 13.6783 4.87549 13.9119C4.72835 14.1456 4.41964 14.2158 4.18596 14.0686C3.27591 13.4956 2.50398 12.7237 1.93096 11.8136C1.78383 11.58 1.85398 11.2712 2.08766 11.1241Z" fill="black"/>
<path d="M1.98637 6.62662C2.04759 6.35734 1.87893 6.08943 1.60966 6.02821C1.34038 5.96699 1.07247 6.13565 1.01125 6.40493C0.894533 6.91832 0.833008 7.45224 0.833008 7.99992C0.833008 8.5476 0.894533 9.08151 1.01125 9.59491C1.07247 9.86418 1.34038 10.0328 1.60966 9.97162C1.87893 9.91041 2.04759 9.64249 1.98637 9.37322C1.88607 8.93206 1.83301 8.47249 1.83301 7.99992C1.83301 7.52734 1.88607 7.06777 1.98637 6.62662Z" fill="black"/>
<path d="M4.87549 2.08791C5.02263 2.32158 4.95247 2.6303 4.71879 2.77743C3.93533 3.27074 3.27049 3.93558 2.77719 4.71904C2.63005 4.95271 2.32134 5.02287 2.08766 4.87573C1.85398 4.7286 1.78383 4.41989 1.93096 4.18621C2.50398 3.27616 3.27591 2.50422 4.18596 1.93121C4.41964 1.78407 4.72835 1.85423 4.87549 2.08791Z" fill="black"/>
<path fill-rule="evenodd" clip-rule="evenodd" d="M5.49967 6.14173C5.49967 5.1934 6.49715 4.48226 7.38287 5.0052L10.5297 6.86309C11.3786 7.36429 11.3786 8.63497 10.5297 9.13616L7.38287 10.9941C6.49716 11.517 5.49967 10.8059 5.49967 9.85752V6.14173ZM6.63932 5.86962C6.56377 5.91686 6.49967 6.00941 6.49967 6.14173V9.85752C6.49967 9.98984 6.56377 10.0824 6.63932 10.1296C6.71243 10.1754 6.79424 10.1803 6.87446 10.1329L10.0213 8.27505C10.1097 8.22284 10.1663 8.1231 10.1663 7.99963C10.1663 7.87616 10.1097 7.77642 10.0213 7.72421L6.87446 5.86631C6.79424 5.81895 6.71243 5.8239 6.63932 5.86962Z" fill="black"/>
</svg>
