<svg width="16" height="16" viewBox="0 0 16 16" fill="none" xmlns="http://www.w3.org/2000/svg">
<g clip-path="url(#clip0_10110_2581)">
<path fill-rule="evenodd" clip-rule="evenodd" d="M9.12516 2.76157L9.76744 3.40385C9.9627 3.59911 9.9627 3.91569 9.76744 4.11095C9.57218 4.30622 9.2556 4.30622 9.06033 4.11095L8.41761 3.46823L7.7105 4.17533L8.82463 5.28946C9.01989 5.48473 9.01989 5.80131 8.82463 5.99657C8.62937 6.19183 8.31279 6.19183 8.11753 5.99657L7.00339 4.88244L6.29629 5.58955L6.93901 6.23227C7.13428 6.42754 7.13428 6.74412 6.93901 6.93938C6.74375 7.13464 6.42717 7.13464 6.23191 6.93938L5.58918 6.29665L4.88207 7.00376L5.9962 8.11789C6.19147 8.31315 6.19147 8.62974 5.9962 8.825C5.80094 9.02026 5.48436 9.02026 5.2891 8.825L4.17497 7.71087L3.46786 8.41797L4.11059 9.0607C4.30585 9.25596 4.30585 9.57254 4.11059 9.76781C3.91533 9.96307 3.59874 9.96307 3.40348 9.76781L2.7612 9.12553C2.45169 9.43788 2.22839 9.67297 2.07141 9.87872C1.87808 10.1321 1.83301 10.2814 1.83301 10.4105C1.83301 10.5397 1.87808 10.689 2.07141 10.9424C2.27355 11.2073 2.58562 11.5209 3.05014 11.9854L4.01434 12.9496C4.47886 13.4141 4.79244 13.7262 5.05736 13.9283C5.31075 14.1216 5.46005 14.1667 5.58918 14.1667C5.71831 14.1667 5.86761 14.1216 6.121 13.9283C6.38592 13.7262 6.6995 13.4141 7.16402 12.9496L12.9492 7.16439C13.4137 6.69987 13.7258 6.38629 13.9279 6.12136C14.1213 5.86797 14.1663 5.71867 14.1663 5.58955C14.1663 5.46042 14.1213 5.31112 13.9279 5.05773C13.7258 4.7928 13.4137 4.47923 12.9492 4.01471L11.985 3.05051C11.5205 2.58599 11.2069 2.27391 10.942 2.07178C10.6886 1.87845 10.5393 1.83337 10.4102 1.83337C10.281 1.83337 10.1317 1.87845 9.87835 2.07178C9.6726 2.22876 9.43751 2.45205 9.12516 2.76157ZM9.27177 1.27676C9.61411 1.01556 9.97448 0.833374 10.4102 0.833374C10.8459 0.833374 11.2062 1.01556 11.5486 1.27676C11.8732 1.52448 12.234 1.88522 12.6675 2.31879L13.6809 3.3322C14.1145 3.76575 14.4752 4.12647 14.723 4.45115C14.9842 4.79349 15.1663 5.15386 15.1663 5.58955C15.1663 6.02523 14.9842 6.3856 14.723 6.72794C14.4752 7.05263 14.1145 7.41335 13.6809 7.8469L7.84653 13.6813C7.41298 14.1149 7.05226 14.4756 6.72758 14.7233C6.38524 14.9845 6.02487 15.1667 5.58918 15.1667C5.15349 15.1667 4.79312 14.9845 4.45078 14.7233C4.1261 14.4756 3.76538 14.1149 3.33183 13.6813L2.31842 12.6679C1.88485 12.2343 1.52411 11.8736 1.27639 11.5489C1.01519 11.2066 0.833008 10.8462 0.833008 10.4105C0.833008 9.97485 1.01519 9.61448 1.27639 9.27214C1.52412 8.94745 1.88487 8.58672 2.31845 8.15317L8.15281 2.3188C8.58636 1.88523 8.94709 1.52448 9.27177 1.27676Z" fill="black"/>
</g>
<defs>
<clipPath id="clip0_10110_2581">
<rect width="16" height="16" rx="5" fill="white"/>
</clipPath>
</defs>
</svg>
