<svg width="16" height="16" viewBox="0 0 16 16" fill="none" xmlns="http://www.w3.org/2000/svg">
<path fill-rule="evenodd" clip-rule="evenodd" d="M8 1.83325C7.56151 1.83325 7.1301 1.97434 6.05374 2.34278L5.67187 2.4735C4.66347 2.81868 3.92806 3.07062 3.41173 3.28038C3.154 3.38508 2.96727 3.47282 2.83619 3.54894C2.77148 3.58652 2.72689 3.61753 2.69711 3.64174C2.67186 3.66226 2.66224 3.67388 2.66086 3.67558C2.65957 3.67767 2.65129 3.69152 2.63962 3.72428C2.6263 3.76168 2.61153 3.81531 2.59714 3.88996C2.56803 4.04105 2.54596 4.24859 2.53072 4.52853C2.50018 5.08933 2.5 5.87214 2.5 6.94436V7.99416C2.5 11.4442 5.07993 13.1422 6.79919 13.8932C7.04684 14.0014 7.18986 14.0627 7.34907 14.1034C7.50112 14.1423 7.68667 14.1666 8 14.1666C8.31333 14.1666 8.49888 14.1423 8.65093 14.1034C8.81014 14.0627 8.95316 14.0014 9.20081 13.8932C10.9201 13.1422 13.5 11.4442 13.5 7.99416V6.94436C13.5 5.87214 13.4998 5.08933 13.4693 4.52853C13.454 4.24859 13.432 4.04105 13.4029 3.88996C13.3885 3.81531 13.3737 3.76168 13.3604 3.72428C13.3487 3.6915 13.3404 3.67765 13.3391 3.67557C13.3377 3.67386 13.3281 3.66224 13.3029 3.64174C13.2731 3.61753 13.2285 3.58652 13.1638 3.54894C13.0327 3.47282 12.846 3.38508 12.5883 3.28038C12.0719 3.07062 11.3365 2.81868 10.3281 2.4735L9.94626 2.34278C8.8699 1.97434 8.43849 1.83325 8 1.83325ZM5.81559 1.36733C6.77821 1.03764 7.37498 0.833252 8 0.833252C8.62502 0.833252 9.22179 1.03764 10.1844 1.36733C10.2127 1.37701 10.2412 1.38679 10.2701 1.39668L10.6694 1.53334C11.6569 1.87138 12.4191 2.13227 12.9646 2.35391C13.2395 2.46556 13.4758 2.5737 13.666 2.68419C13.8491 2.79052 14.0328 2.92315 14.1576 3.10095C14.2809 3.27669 14.3447 3.49275 14.3848 3.70073C14.4265 3.91696 14.4516 4.17634 14.4678 4.47416C14.5 5.06552 14.5 5.87566 14.5 6.92646V7.99416C14.5 12.0615 11.428 14.0116 9.60111 14.8096L9.58304 14.8175C9.35651 14.9165 9.14359 15.0095 8.89893 15.0722C8.64062 15.1383 8.36617 15.1666 8 15.1666C7.63383 15.1666 7.35938 15.1383 7.10107 15.0722C6.85641 15.0095 6.64349 14.9165 6.41696 14.8175L6.39889 14.8096C4.57202 14.0116 1.5 12.0615 1.5 7.99416V6.92652C1.5 5.87568 1.5 5.06553 1.5322 4.47416C1.54842 4.17634 1.57354 3.91696 1.61521 3.70073C1.65529 3.49275 1.71907 3.27669 1.84242 3.10095C1.96721 2.92315 2.1509 2.79052 2.33399 2.68419C2.52424 2.5737 2.76052 2.46556 3.03535 2.35391C3.58094 2.13227 4.34308 1.87138 5.33064 1.53334L5.72989 1.39668C5.75878 1.38679 5.78734 1.377 5.81559 1.36733ZM8 5.26691C7.9207 5.38458 7.82301 5.55803 7.67757 5.81894L7.59019 5.9757C7.5837 5.98734 7.57701 5.9995 7.57008 6.01209C7.49769 6.14363 7.39936 6.32231 7.23697 6.44558C7.0716 6.57112 6.87216 6.61502 6.72957 6.64641C6.71604 6.64939 6.70301 6.65226 6.69058 6.65507L6.52088 6.69347C6.21077 6.76363 6.0175 6.80855 5.88764 6.85395C5.96794 6.97458 6.10272 7.13393 6.32136 7.3896L6.43705 7.52488C6.44555 7.53483 6.45443 7.5451 6.46358 7.5557C6.56208 7.66972 6.69311 7.82141 6.75368 8.01617C6.81361 8.2089 6.79332 8.40831 6.77781 8.56073C6.77637 8.57497 6.77496 8.58879 6.77366 8.60216L6.75617 8.78265C6.72493 9.10508 6.70568 9.31365 6.70623 9.46119C6.83437 9.41578 7.00988 9.33605 7.27773 9.21272L7.43661 9.13957C7.44831 9.13419 7.46055 9.12846 7.4733 9.12249C7.6052 9.06077 7.79231 8.97321 8 8.97321C8.20769 8.97321 8.3948 9.06077 8.52669 9.12249C8.53945 9.12846 8.55169 9.13419 8.56339 9.13957L8.72227 9.21273C8.99012 9.33605 9.16563 9.41578 9.29378 9.46119C9.29432 9.31365 9.27507 9.10508 9.24383 8.78265L9.22634 8.60216C9.22504 8.58879 9.22363 8.57497 9.22219 8.56074C9.20668 8.40831 9.18639 8.20891 9.24632 8.01617C9.30689 7.82141 9.43792 7.66972 9.53642 7.5557C9.54558 7.5451 9.55445 7.53483 9.56296 7.52488L9.67864 7.3896C9.89728 7.13393 10.0321 6.97458 10.1124 6.85395C9.9825 6.80855 9.78923 6.76363 9.47912 6.69347L9.30942 6.65507C9.29699 6.65226 9.28396 6.64939 9.27043 6.64641C9.12784 6.61502 8.9284 6.57112 8.76303 6.44558C8.60064 6.32231 8.50231 6.14363 8.42993 6.0121C8.423 5.9995 8.4163 5.98734 8.40981 5.9757L8.32243 5.81894C8.17699 5.55803 8.0793 5.38458 8 5.26691ZM9.4353 9.50005C9.43604 9.50007 9.43643 9.5001 9.43645 9.50011L9.4353 9.50005ZM6.56355 9.50011C6.56356 9.5001 6.56396 9.50007 6.56471 9.50005L6.56355 9.50011ZM7.25543 4.58981C7.39921 4.40206 7.63397 4.16658 8 4.16658C8.36603 4.16658 8.60079 4.40206 8.74457 4.58981C8.88302 4.77061 9.02474 5.02492 9.17887 5.30151C9.18453 5.31165 9.1902 5.32183 9.19588 5.33203L9.28327 5.4888C9.30781 5.53281 9.32678 5.56683 9.34364 5.59599C9.35496 5.6156 9.36384 5.6304 9.37099 5.64183C9.3822 5.64493 9.39639 5.6486 9.41457 5.65303C9.44591 5.66066 9.48236 5.66892 9.5301 5.67973L9.6998 5.71812C9.71137 5.72074 9.72291 5.72335 9.73442 5.72595C10.0324 5.79331 10.3104 5.85618 10.5204 5.93893C10.748 6.0286 11.0229 6.19021 11.1288 6.53084C11.233 6.86602 11.1047 7.15539 10.9751 7.36132C10.8533 7.55478 10.6653 7.77457 10.461 8.01334C10.4536 8.02204 10.4461 8.03077 10.4386 8.03953L10.323 8.17481C10.2905 8.2128 10.2654 8.2421 10.2441 8.26778C10.2267 8.28884 10.2146 8.30404 10.206 8.31552C10.2071 8.35265 10.2119 8.40493 10.2217 8.50571L10.2425 8.72014C10.2735 9.03964 10.3018 9.33125 10.2915 9.56092C10.2809 9.79954 10.2246 10.1189 9.94095 10.3342C9.64914 10.5557 9.32311 10.5125 9.09187 10.4463C8.87544 10.3843 8.6154 10.2645 8.33657 10.1361C8.32576 10.1311 8.31491 10.1261 8.30404 10.1211L8.14516 10.0479C8.10047 10.0273 8.06627 10.0116 8.03656 9.99851C8.02193 9.99205 8.00993 9.98693 8 9.98284C7.99006 9.98693 7.97807 9.99205 7.96344 9.99851C7.93373 10.0116 7.89953 10.0273 7.85484 10.0479L7.69596 10.1211C7.68509 10.1261 7.67424 10.1311 7.66342 10.1361C7.3846 10.2645 7.12456 10.3843 6.90814 10.4463C6.67689 10.5125 6.35086 10.5557 6.05905 10.3342C5.7754 10.1189 5.71911 9.79954 5.70848 9.56092C5.69825 9.33125 5.72654 9.03965 5.75754 8.72016C5.75864 8.70887 5.75974 8.69755 5.76084 8.6862L5.77833 8.50571C5.78809 8.40493 5.79286 8.35265 5.79398 8.31552C5.78535 8.30404 5.7733 8.28884 5.75585 8.26778C5.73458 8.2421 5.70954 8.2128 5.67705 8.17481L5.56136 8.03953C5.55387 8.03077 5.5464 8.02204 5.53895 8.01333C5.33472 7.77457 5.14671 7.55478 5.02492 7.36132C4.89529 7.15539 4.76697 6.86602 4.8712 6.53084C4.97713 6.19021 5.25204 6.0286 5.47956 5.93893C5.68955 5.85618 5.96764 5.79331 6.26557 5.72595C6.27709 5.72335 6.28863 5.72074 6.3002 5.71812L6.4699 5.67973C6.51764 5.66892 6.55409 5.66066 6.58543 5.65303C6.60361 5.6486 6.6178 5.64493 6.62901 5.64183C6.63616 5.63041 6.64504 5.6156 6.65637 5.59599C6.67322 5.56683 6.6922 5.53281 6.71673 5.4888L6.80412 5.33203C6.8098 5.32183 6.81547 5.31166 6.82113 5.30151C6.97526 5.02492 7.11698 4.77061 7.25543 4.58981Z" fill="black"/>
</svg>
