<svg width="16" height="16" viewBox="0 0 16 16" fill="none" xmlns="http://www.w3.org/2000/svg">
<path d="M5.25556 5.16663C4.9892 5.1666 4.74486 5.16657 4.54489 5.19152C4.32577 5.21885 4.0922 5.28276 3.89138 5.4612C3.85713 5.49165 3.82469 5.52408 3.79425 5.55834C3.61581 5.75915 3.55189 5.99273 3.52456 6.21184C3.49962 6.41182 3.49965 6.65615 3.49968 6.92251L3.49968 6.94996C3.49968 7.22611 3.72354 7.44996 3.99968 7.44996C4.27582 7.44996 4.49968 7.22611 4.49968 6.94996C4.49968 6.64694 4.50059 6.46617 4.51687 6.33561C4.53316 6.20506 4.66866 6.18383 4.66866 6.18383C4.79922 6.16754 4.97999 6.16663 5.28301 6.16663H5.49968V9.8333H4.66635C4.3902 9.8333 4.16635 10.0572 4.16635 10.3333C4.16635 10.6094 4.3902 10.8333 4.66635 10.8333H7.33301C7.60915 10.8333 7.83301 10.6094 7.83301 10.3333C7.83301 10.0572 7.60915 9.8333 7.33301 9.8333H6.49968V6.16663H6.71635C7.01937 6.16663 7.20014 6.16754 7.33069 6.18383C7.33069 6.18383 7.4662 6.20506 7.48248 6.33561C7.49877 6.46617 7.49968 6.64694 7.49968 6.94996C7.49968 7.22611 7.72354 7.44996 7.99968 7.44996C8.27582 7.44996 8.49968 7.22611 8.49968 6.94996L8.49968 6.92251C8.49971 6.65614 8.49974 6.41182 8.47479 6.21184C8.44746 5.99273 8.38355 5.75915 8.2051 5.55834C8.17466 5.52408 8.14223 5.49165 8.10797 5.4612C7.90716 5.28276 7.67358 5.21885 7.45447 5.19152C7.25449 5.16657 7.01017 5.1666 6.74381 5.16663H5.25556Z" fill="black"/>
<path fill-rule="evenodd" clip-rule="evenodd" d="M9.37062 2.16663H6.62873C5.40356 2.16662 4.43313 2.16661 3.67366 2.26872C2.89205 2.3738 2.25941 2.59521 1.7605 3.09412C1.26159 3.59303 1.04018 4.22566 0.935098 5.00728C0.832989 5.76675 0.832998 6.73717 0.833008 7.96234V8.03757C0.832998 9.26274 0.832989 10.2332 0.935098 10.9926C1.04018 11.7743 1.26159 12.4069 1.7605 12.9058C2.25941 13.4047 2.89204 13.6261 3.67366 13.7312C4.43313 13.8333 5.40354 13.8333 6.6287 13.8333H9.37062C10.5958 13.8333 11.5662 13.8333 12.3257 13.7312C13.1073 13.6261 13.7399 13.4047 14.2388 12.9058C14.7378 12.4069 14.9592 11.7743 15.0642 10.9926C15.1664 10.2332 15.1664 9.26276 15.1663 8.0376V7.96235C15.1664 6.73719 15.1664 5.76675 15.0642 5.00728C14.9592 4.22566 14.7378 3.59303 14.2388 3.09412C13.7399 2.59521 13.1073 2.3738 12.3257 2.26872C11.5662 2.16661 10.5958 2.16662 9.37062 2.16663ZM2.46761 3.80123C2.74975 3.51909 3.13618 3.34998 3.80691 3.2598C4.49202 3.16769 5.39513 3.16663 6.66634 3.16663H9.33301C10.6042 3.16663 11.5073 3.16769 12.1924 3.2598C12.8632 3.34998 13.2496 3.51909 13.5317 3.80123C13.8139 4.08337 13.983 4.4698 14.0732 5.14053C14.1653 5.82564 14.1663 6.72875 14.1663 7.99996C14.1663 9.27117 14.1653 10.1743 14.0732 10.8594C13.983 11.5301 13.8139 11.9166 13.5317 12.1987C13.2496 12.4808 12.8632 12.6499 12.1924 12.7401C11.5073 12.8322 10.6042 12.8333 9.33301 12.8333H6.66634C5.39513 12.8333 4.49202 12.8322 3.80691 12.7401C3.13618 12.6499 2.74975 12.4808 2.46761 12.1987C2.18547 11.9166 2.01636 11.5301 1.92618 10.8594C1.83407 10.1743 1.83301 9.27117 1.83301 7.99996C1.83301 6.72875 1.83407 5.82564 1.92618 5.14053C2.01636 4.4698 2.18547 4.08337 2.46761 3.80123Z" fill="black"/>
</svg>
