<svg width="15" height="15" viewBox="0 0 15 15" fill="none" xmlns="http://www.w3.org/2000/svg">
<path fill-rule="evenodd" clip-rule="evenodd" d="M9.79868 7.47388e-07L11.2013 1.42291e-06C11.8003 -1.81672e-05 12.2998 -3.45012e-05 12.6963 0.0532761C13.1149 0.109546 13.4927 0.233326 13.7964 0.536973C14.1 0.84062 14.2238 1.21849 14.2801 1.63702C14.3334 2.03354 14.3334 2.53302 14.3333 3.13201V11.2013C14.3334 11.8003 14.3334 12.2998 14.2801 12.6963C14.2238 13.1148 14.1 13.4927 13.7964 13.7964C13.4927 14.1 13.1149 14.2238 12.6963 14.2801C12.2998 14.3334 11.8003 14.3334 11.2013 14.3333H9.79867C9.19969 14.3334 8.70021 14.3334 8.30368 14.2801C7.88515 14.2238 7.50729 14.1 7.20364 13.7964C6.89999 13.4927 6.77621 13.1148 6.71994 12.6963C6.66663 12.2998 6.66665 11.8003 6.66667 11.2013V3.13201C6.66665 2.53302 6.66663 2.03354 6.71994 1.63702C6.77621 1.21849 6.89999 0.84062 7.20364 0.536973C7.50729 0.233326 7.88515 0.109546 8.30368 0.053276C8.70021 -3.51767e-05 9.19969 -1.88427e-05 9.79868 7.47388e-07ZM7.66667 5.66667H9.16667C9.44281 5.66667 9.66667 5.44281 9.66667 5.16667C9.66667 4.89053 9.44281 4.66667 9.16667 4.66667H7.66667V3.66667L8.5 3.66667C8.77614 3.66667 9 3.44281 9 3.16667C9 2.89053 8.77614 2.66667 8.5 2.66667L7.66788 2.66667C7.6707 2.28704 7.68006 2.0006 7.71103 1.77026C7.75239 1.46262 7.82387 1.33096 7.91075 1.24408C7.99762 1.1572 8.12929 1.08572 8.43693 1.04436C8.75896 1.00106 9.19066 1 9.83334 1L11.1667 1C11.8093 1 12.2411 1.00106 12.5631 1.04436C12.8707 1.08572 13.0024 1.1572 13.0893 1.24408C13.1761 1.33096 13.2476 1.46262 13.289 1.77026C13.3323 2.09229 13.3333 2.52399 13.3333 3.16667V11.1667C13.3333 11.8093 13.3323 12.241 13.289 12.5631C13.2476 12.8707 13.1761 13.0024 13.0893 13.0893C13.0024 13.1761 12.8707 13.2476 12.5631 13.289C12.2411 13.3323 11.8093 13.3333 11.1667 13.3333H9.83334C9.19066 13.3333 8.75896 13.3323 8.43693 13.289C8.12929 13.2476 7.99762 13.1761 7.91075 13.0893C7.82387 13.0024 7.75239 12.8707 7.71103 12.5631C7.68006 12.3327 7.6707 12.0463 7.66788 11.6667H8.5C8.77614 11.6667 9 11.4428 9 11.1667C9 10.8905 8.77614 10.6667 8.5 10.6667H7.66667V9.66667H9.16667C9.44281 9.66667 9.66667 9.44281 9.66667 9.16667C9.66667 8.89053 9.44281 8.66667 9.16667 8.66667H7.66667V7.66667H8.5C8.77614 7.66667 9 7.44281 9 7.16667C9 6.89053 8.77614 6.66667 8.5 6.66667H7.66667V5.66667ZM3.3186e-06 2.4C3.35833e-06 1.05066 1.14377 1.54212e-06 2.5 1.50238e-06C3.85624 1.46264e-06 5 1.05066 5 2.4L5 9.5565C5.00003 9.91858 5.00005 10.1461 4.97064 10.3721C4.93602 10.6382 4.871 10.8997 4.7769 11.1519C4.69706 11.3659 4.59031 11.5687 4.41966 11.8929L3.42487 13.783C3.24264 14.1292 2.88029 14.3333 2.5 14.3333C2.11971 14.3333 1.75736 14.1292 1.57514 13.783L0.580351 11.8929C0.409691 11.5687 0.302945 11.3659 0.223107 11.1519C0.129004 10.8997 0.0639891 10.6382 0.0293605 10.3721C-4.30544e-05 10.1461 -2.58082e-05 9.91858 1.64967e-06 9.5565L3.3186e-06 2.4ZM2.5 1C1.6471 1 1 1.65066 1 2.4L1 2.76998C1.06426 2.80814 1.14476 2.85179 1.24043 2.89586C1.53218 3.03024 1.96082 3.16667 2.5 3.16667C3.03918 3.16667 3.46783 3.03024 3.75957 2.89586C3.85524 2.85179 3.93575 2.80814 4 2.76998L4 2.4C4 1.65066 3.35291 1 2.5 1ZM4 3.88069C3.61815 4.03371 3.11052 4.16667 2.5 4.16667C1.88949 4.16667 1.38186 4.03371 1 3.88069L1 9.52253C1 9.9293 1.00096 10.089 1.021 10.2431C1.04577 10.4335 1.09233 10.621 1.16001 10.8023C1.21488 10.9494 1.28968 11.0935 1.48107 11.4571L2.12716 12.6847H2.87284L3.51894 11.4571C3.71033 11.0935 3.78513 10.9494 3.84 10.8023C3.90767 10.621 3.95423 10.4335 3.979 10.2431C3.99905 10.089 4 9.9293 4 9.52253V3.88069ZM0.819772 2.64896L0.820664 2.6497C0.819546 2.64881 0.819523 2.64876 0.819772 2.64896ZM4.17893 2.65001L4.1802 2.64899C4.18002 2.64914 4.17959 2.64948 4.17893 2.65001Z" fill="black"/>
</svg>
