<svg width="32" height="32" viewBox="0 0 32 32" fill="none" xmlns="http://www.w3.org/2000/svg">
<g clip-path="url(#clip0_10068_5292)">
<path fill-rule="evenodd" clip-rule="evenodd" d="M12.7373 12.504H6.36933V6.44666H11.4933C12.1773 6.44666 12.736 5.88667 12.736 5.204V0.0773315H18.7947V6.44666C18.7948 7.24229 18.6382 8.03015 18.3338 8.76522C18.0294 9.5003 17.5831 10.1682 17.0204 10.7307C16.4578 11.2932 15.7898 11.7394 15.0547 12.0437C14.3195 12.3479 13.5316 12.5043 12.736 12.504H12.7373ZM6.36933 13.1267H0V19.184H5.12667C5.80933 19.184 6.36933 19.744 6.36933 20.4267V25.5533H12.4267V19.184C12.4268 18.3885 12.2703 17.6007 11.9659 16.8658C11.6616 16.1308 11.2154 15.4629 10.6529 14.9004C10.0904 14.3379 9.42257 13.8917 8.68758 13.5874C7.95259 13.283 7.16484 13.1265 6.36933 13.1267ZM26.7333 12.8133C26.4041 12.8123 26.0886 12.681 25.8558 12.4482C25.623 12.2154 25.4917 11.8999 25.4907 11.5707V6.44666H19.4333V12.8133C19.433 13.609 19.5894 14.3968 19.8937 15.132C20.198 15.8671 20.6441 16.5351 21.2066 17.0978C21.7692 17.6604 22.437 18.1067 23.1721 18.4111C23.9072 18.7156 24.695 18.8722 25.4907 18.872H31.86V12.816H26.7333V12.8133ZM13.0493 25.5547V31.924H19.108V26.7973C19.108 26.1133 19.668 25.5547 20.3507 25.5547H25.4773V19.4933H19.1067C18.3109 19.493 17.5229 19.6495 16.7877 19.9538C16.0525 20.2582 15.3844 20.7044 14.8218 21.2671C14.2591 21.8298 13.8128 22.4978 13.5085 23.233C13.2041 23.9683 13.0477 24.7563 13.048 25.552L13.0493 25.5547Z" fill="#007356"/>
</g>
<defs>
<clipPath id="clip0_10068_5292">
<rect width="32" height="32" fill="white"/>
</clipPath>
</defs>
</svg>
