<svg width="75" height="18" viewBox="0 0 75 18" fill="none" xmlns="http://www.w3.org/2000/svg">
<g clip-path="url(#clip0_10058_4418)">
<path d="M14.4546 16.1C14.4785 16.1 14.4887 16.1299 14.4702 16.1449C12.901 17.351 10.9766 18.0033 8.99763 18C6.93953 18 5.04176 17.3082 3.52571 16.1449C3.50656 16.1305 3.51733 16.1 3.54126 16.1H14.4546ZM16.8017 13.4831C16.4886 14.0277 16.1192 14.538 15.6996 15.0055C15.6837 15.0231 15.6611 15.0331 15.6374 15.033H2.35845C2.33476 15.033 2.31214 15.0231 2.29623 15.0055C1.87665 14.538 1.50727 14.0277 1.19418 13.4831C1.18527 13.4669 1.19119 13.4466 1.20741 13.4376C1.21237 13.4349 1.21788 13.4335 1.2235 13.4335H16.773C16.7987 13.4335 16.8148 13.461 16.8017 13.4831ZM17.8176 10.7902C17.7116 11.3143 17.559 11.8277 17.3617 12.3246C17.3518 12.35 17.3273 12.3666 17.3001 12.3665H0.69581C0.668349 12.3668 0.64358 12.3501 0.633589 12.3246C0.436274 11.8277 0.283651 11.3143 0.177694 10.7902C0.174045 10.7721 0.185831 10.7545 0.203959 10.7508C0.206173 10.7504 0.208386 10.7502 0.2106 10.7502H17.7853C17.8062 10.7502 17.8218 10.7693 17.8176 10.7902ZM8.93721 0.000206835C13.9341 -0.0333045 17.9953 4.0096 17.9953 9.00039C17.9953 9.21982 17.9877 9.43723 17.9725 9.65266C17.971 9.67001 17.9564 9.68324 17.939 9.68318H0.0562422C0.0388919 9.68294 0.0245928 9.66941 0.0233364 9.65206C0.00790063 9.43801 6.30773e-05 9.22342 3.24864e-06 9.00876C-0.00418476 4.11133 4.04143 0.0331197 8.93721 0.000206835Z" fill="#FF631F"/>
<path d="M23.3809 3.55298H28.3006C30.6381 3.55298 31.7611 4.63791 31.7611 6.35955C31.7611 7.49175 31.1448 8.31398 30.2851 8.70055C31.347 9.00994 32.2068 9.84892 32.2068 11.2271C32.2068 13.1959 30.8547 14.3131 28.3006 14.3131H23.3815L23.3809 3.55298ZM27.7472 5.33626H25.5796V8.0028H27.7478C28.9306 8.0028 29.5157 7.64615 29.5157 6.66953C29.5157 5.69291 28.9324 5.33566 27.7472 5.33566M28.0864 9.69153H25.5814V12.5292H28.0864C29.3015 12.5292 29.962 12.142 29.962 11.1182C29.962 10.0949 29.2997 9.69153 28.0864 9.69153ZM38.0586 14.294V13.0935C37.5016 14.0007 36.448 14.4465 35.2551 14.4465C33.7689 14.4465 32.6082 13.6471 32.6082 12.2013C32.6082 10.8489 33.6307 10.0793 35.1312 9.8166L37.918 9.34026V9.15655C37.918 8.32654 37.2982 7.95672 36.4163 7.95672C35.4872 7.95672 35.0379 8.37262 34.9768 9.01891H32.8864C32.9642 7.38942 34.2649 6.51155 36.4175 6.51155C38.7861 6.51155 39.963 7.48038 39.963 9.50961V14.2934L38.0586 14.294ZM37.9198 11.1259V10.7717L35.83 11.1409C34.9942 11.2803 34.6065 11.5251 34.6065 12.1103C34.6065 12.6172 35.0552 12.9403 35.83 12.9403C36.8363 12.9403 37.9198 12.294 37.9198 11.1253M44.13 6.51155C45.971 6.51155 47.5522 7.29547 47.5821 8.97224H45.5258C45.4798 8.40374 44.9742 7.95732 44.0678 7.95732C43.3307 7.95732 42.809 8.26431 42.809 8.72629C42.809 9.18826 43.162 9.3259 43.8225 9.44917L45.5563 9.78788C46.9384 10.0488 47.7198 10.7573 47.7198 11.9865C47.7198 13.4783 46.507 14.4471 44.2676 14.4471C42.0283 14.4471 40.7078 13.4478 40.6319 11.8333H42.7791C42.8389 12.4796 43.3307 13.002 44.3442 13.002C45.2805 13.002 45.7239 12.6489 45.7239 12.2025C45.7239 11.7561 45.3709 11.5724 44.7104 11.4497L42.9765 11.1265C41.5969 10.8656 40.8137 10.1433 40.8137 8.91239C40.8137 7.4361 42.1485 6.51334 44.1264 6.51334L44.13 6.51155ZM51.9718 6.51155C54.423 6.51155 55.8768 7.97348 55.8768 10.4324V11.0942H50.0878C50.1338 12.0331 50.838 12.9092 51.9562 12.9092C52.7681 12.9092 53.4418 12.5095 53.6254 11.8333H55.7685C55.4329 13.525 53.915 14.4471 51.9544 14.4471C49.6881 14.4471 47.9872 13.0325 47.9872 10.4802C47.9872 8.09615 49.5332 6.51334 51.9682 6.51334L51.9718 6.51155ZM53.778 9.67897C53.7313 8.69577 52.9655 7.98784 52.0166 7.98784C50.975 7.98784 50.2248 8.77117 50.1021 9.67897H53.778ZM63.4272 14.3131V12.0798H58.1503V10.2804L63.0126 3.55298H65.5056V14.3125L63.4272 14.3131ZM63.4272 5.86346L60.2574 10.3288H63.4272V5.86346ZM71.604 12.0786H66.3079V10.2792L71.1863 3.55298H73.6884V10.3282H75.0004V12.0804H73.6884V14.3125H71.604V12.0786ZM71.604 5.86287L68.4229 10.3282H71.604V5.86287Z" fill="black"/>
</g>
<defs>
<clipPath id="clip0_10058_4418">
<rect width="75" height="18" fill="white"/>
</clipPath>
</defs>
</svg>
