<svg width="75" height="16" viewBox="0 0 75 16" fill="none" xmlns="http://www.w3.org/2000/svg">
<g clip-path="url(#clip0_10058_4421)">
<path d="M42.3114 12.3431C42.6168 13.5265 43.6956 14.4015 44.9795 14.4017C46.2637 14.4017 47.3429 13.5267 47.6483 12.3431H49.2865C48.9561 14.4155 47.1541 15.9999 44.9795 16C42.805 15.9998 41.0023 14.4154 40.672 12.3431H42.3114ZM40.6183 11.7077C40.6181 11.6911 40.6171 11.6743 40.6171 11.6575C40.6171 11.6411 40.6181 11.6245 40.6183 11.6081V11.7077ZM40.1586 4.11459L36.9445 5.71419V11.4297H35.3377V2.74479H36.9445V4.11459L40.1586 2.51432V4.11459ZM62.8872 4.11459C63.3025 3.45611 64.1065 3.19987 65.1832 3.19987C66.9367 3.19988 68.1673 4.73004 68.1673 6.42969V11.4291H66.5409V6.79753C66.5409 5.57246 65.7695 4.80013 64.7235 4.80013C63.6622 4.80017 62.8872 5.63374 62.8872 6.79753V11.4291H61.2798V3.19987H62.8872V4.11459ZM12.8373 4.11459C13.2965 3.42893 14.1683 3.19988 15.1333 3.19987C16.0984 3.19987 16.9702 3.65743 17.4293 4.3431C17.8885 3.65743 18.5774 3.19987 19.9549 3.19987C21.9062 3.19996 23.3985 4.45713 23.3986 6.17123V11.4284H21.7912V6.62825C21.7911 5.43527 20.9976 4.68565 19.9549 4.68555C18.8809 4.68555 18.118 5.49716 18.1179 6.62825V11.4284H16.5112V6.62825C16.5111 5.43519 15.6175 4.68555 14.5592 4.68555C13.4853 4.68567 12.8373 5.43339 12.8373 6.56445V11.4284H11.2306V3.19987H12.8373V4.11459ZM33.9559 6.66341C34.03 8.42327 33.0726 10.1433 31.3807 10.9649C29.6888 11.7862 27.7384 11.4781 26.391 10.3366L28.0592 9.52667C28.8563 9.9134 29.8177 9.94413 30.6763 9.52733C31.535 9.1104 32.103 8.33727 32.2877 7.47393L33.9559 6.66341ZM49.3414 7.06053C49.3414 7.069 49.342 7.07747 49.342 7.08593C49.342 7.0942 49.3414 7.10247 49.3414 7.11067V7.31447H49.3355C49.2161 9.60653 47.3116 11.4284 44.9795 11.4284C42.5705 11.4282 40.6177 9.4842 40.6177 7.08593C40.6178 4.68777 42.5706 2.74366 44.9795 2.74349C46.0244 2.74349 46.9834 3.10951 47.7346 3.7194V2.28646H49.3414V7.06053ZM59.8994 6.66341C59.9734 8.4232 59.0159 10.1433 57.3241 10.9649C55.6322 11.7863 53.6813 11.4781 52.3338 10.3366L54.0021 9.52667C54.799 9.9134 55.7605 9.94413 56.6192 9.52733C57.4778 9.1104 58.0458 8.33727 58.2305 7.47393L59.8994 6.66341ZM71.8383 2.28515H73.6744V3.88541H71.8383V9.82813H74.8249V11.4284L70.2331 11.4277H70.2318V3.88541H69.0834V2.28515H70.2318V0H71.8383V2.28515ZM9.84878 6.66211C9.92284 8.42193 8.96545 10.142 7.27353 10.9635C5.58169 11.7849 3.63126 11.4767 2.28391 10.3353L3.95213 9.5254C4.74921 9.91213 5.71049 9.94233 6.56923 9.5254C7.42802 9.1084 7.99594 8.3354 8.18056 7.472L9.84878 6.66211ZM44.9795 4.34245C43.4581 4.34252 42.2245 5.57001 42.2245 7.08467C42.2245 8.59933 43.458 9.8274 44.9795 9.82747C46.5011 9.82747 47.7346 8.5994 47.7346 7.08467C47.7345 5.56997 46.501 4.34245 44.9795 4.34245ZM27.3563 2.74935C29.635 1.64306 32.3835 2.58507 33.4949 4.85351C33.5628 4.99205 33.6227 5.13254 33.6754 5.27409L25.4644 9.26173C25.3848 9.1332 25.3106 8.99927 25.2427 8.86067C24.1313 6.59213 25.0775 3.85579 27.3563 2.74935ZM53.2991 2.74935C55.5778 1.64303 58.3262 2.58507 59.4376 4.85351C59.5055 4.99205 59.5655 5.13255 59.6182 5.27409L51.4072 9.26173C51.3275 9.1332 51.2534 8.99927 51.1855 8.86067C50.0741 6.59213 51.0203 3.85579 53.2991 2.74935ZM3.24914 2.74805C5.52786 1.64172 8.27632 2.58371 9.38773 4.85221C9.45563 4.99077 9.51556 5.13122 9.56826 5.27279L1.35726 9.25973C1.27766 9.13133 1.20345 8.99787 1.13558 8.8594C0.0241562 6.59082 0.970385 3.85449 3.24914 2.74805ZM31.3421 4.62761C30.4652 3.859 29.1763 3.64579 28.0606 4.1875C26.945 4.7292 26.3206 5.8715 26.3891 7.03253L31.3421 4.62761ZM57.2849 4.62761C56.408 3.859 55.119 3.64579 54.0033 4.1875C52.8878 4.72921 52.2633 5.87151 52.3319 7.03253L57.2849 4.62761ZM7.23496 4.6263C6.35812 3.85774 5.06906 3.64395 3.95344 4.18555C2.83778 4.72725 2.21342 5.87015 2.28195 7.03127L7.23496 4.6263Z" fill="black"/>
</g>
<defs>
<clipPath id="clip0_10058_4421">
<rect width="75" height="16" fill="white"/>
</clipPath>
</defs>
</svg>
