<svg width="82" height="14" viewBox="0 0 82 14" fill="none" xmlns="http://www.w3.org/2000/svg">
<g clip-path="url(#clip0_10060_5021)">
<path d="M77.1442 13.9443C76.1311 13.9443 75.2509 13.7505 74.5037 13.3629C73.7565 12.9689 73.174 12.3781 72.7561 11.5902C72.3445 10.8023 72.1387 9.82689 72.1387 8.66414C72.1387 7.55854 72.354 6.60544 72.7846 5.80484C73.2152 4.99788 73.8104 4.38471 74.5702 3.96536C75.3301 3.54599 76.1944 3.3363 77.1633 3.3363C78.0941 3.3363 78.9204 3.53964 79.6423 3.94629C80.3641 4.35295 80.9245 4.94386 81.3234 5.71906C81.7286 6.49424 81.9312 7.42193 81.9312 8.50211C81.9312 8.88971 81.9281 9.19789 81.9218 9.42658H74.3518V7.42511H80.0886L79.0059 7.79682C79.0059 7.27579 78.9299 6.84054 78.7779 6.49107C78.6322 6.13525 78.4169 5.86838 78.1321 5.69046C77.8471 5.51255 77.502 5.4236 77.0967 5.4236C76.6725 5.4236 76.2989 5.52844 75.9759 5.73812C75.6594 5.94145 75.4124 6.24644 75.2351 6.65309C75.0641 7.05975 74.9786 7.54901 74.9786 8.12087V9.1026C74.9786 9.68716 75.0673 10.1828 75.2446 10.5894C75.4219 10.996 75.6752 11.3042 76.0045 11.5139C76.3337 11.7173 76.7231 11.8189 77.1727 11.8189C77.6666 11.8189 78.0751 11.6918 78.3979 11.4377C78.7209 11.1771 78.9235 10.8118 79.0059 10.3416H81.8838C81.7951 11.0787 81.545 11.7173 81.1335 12.2573C80.7281 12.7974 80.1868 13.2136 79.5092 13.5059C78.8317 13.7982 78.0434 13.9443 77.1442 13.9443Z" fill="black"/>
<path d="M68.3994 0.000244141H71.2773V13.6677H68.3994V0.000244141Z" fill="black"/>
<path d="M63.5019 13.9441C62.9574 13.9441 62.4698 13.8488 62.0393 13.6582C61.6149 13.4675 61.2541 13.1817 60.9564 12.8004C60.6589 12.4128 60.4372 11.9362 60.2916 11.3707L60.5955 11.4565V13.6677H57.7461V3.6125H60.624V5.86181L60.3011 5.919C60.4467 5.37891 60.6683 4.91825 60.966 4.53701C61.2698 4.14941 61.6403 3.85395 62.0772 3.65062C62.5142 3.44094 63.0049 3.33609 63.5495 3.33609C64.3663 3.33609 65.0754 3.54896 65.6771 3.97468C66.2786 4.40039 66.7408 5.01356 67.0638 5.81416C67.3866 6.60841 67.5481 7.55198 67.5481 8.64487C67.5481 9.73143 67.3835 10.6749 67.0542 11.4756C66.725 12.2699 66.2532 12.8798 65.639 13.3055C65.0311 13.7313 64.3188 13.9441 63.5019 13.9441ZM62.6091 11.7425C63.0397 11.7425 63.4006 11.6154 63.6919 11.3612C63.9895 11.107 64.2111 10.748 64.3568 10.2842C64.5087 9.8204 64.5848 9.27395 64.5848 8.64487C64.5848 8.01582 64.5087 7.46937 64.3568 7.00553C64.2111 6.54169 63.9895 6.18269 63.6919 5.92853C63.4006 5.66802 63.0397 5.53776 62.6091 5.53776C62.1849 5.53776 61.8208 5.66802 61.5168 5.92853C61.2193 6.18269 60.9944 6.54487 60.8425 7.01507C60.6905 7.47891 60.6145 8.02217 60.6145 8.64487C60.6145 9.27395 60.6905 9.8204 60.8425 10.2842C60.9944 10.748 61.2193 11.107 61.5168 11.3612C61.8208 11.6154 62.1849 11.7425 62.6091 11.7425ZM57.7461 0.000244141H60.624V3.6125H57.7461V0.000244141Z" fill="black"/>
<path d="M50.5229 13.9443C49.896 13.9443 49.3325 13.8204 48.8323 13.5726C48.3384 13.3248 47.9489 12.9722 47.664 12.5146C47.3853 12.0508 47.2461 11.5108 47.2461 10.8944C47.2461 9.95398 47.5215 9.236 48.0724 8.74038C48.6233 8.23842 49.418 7.91119 50.4564 7.7587L52.1946 7.51089C52.5429 7.46005 52.8183 7.39651 53.0209 7.32027C53.2235 7.24402 53.3723 7.14235 53.4673 7.01528C53.5623 6.88184 53.6098 6.71346 53.6098 6.51013C53.6098 6.30045 53.5528 6.10983 53.4388 5.93827C53.3312 5.76036 53.1666 5.62057 52.945 5.5189C52.7297 5.41089 52.4668 5.35688 52.1566 5.35688C51.6627 5.35688 51.267 5.48714 50.9693 5.74765C50.6717 6.00181 50.5103 6.35128 50.485 6.79606H47.512C47.5374 6.12254 47.74 5.52526 48.1199 5.00424C48.5062 4.47685 49.0412 4.06701 49.7251 3.77473C50.4089 3.48245 51.2005 3.3363 52.0996 3.3363C53.0431 3.3363 53.8409 3.49198 54.4931 3.80333C55.1454 4.10832 55.6361 4.54674 55.9654 5.1186C56.3009 5.69046 56.4687 6.37352 56.4687 7.16777V11.3614C56.4687 11.8125 56.5004 12.2319 56.5638 12.6195C56.6333 13.0007 56.7315 13.2422 56.8582 13.3439V13.668H53.8662C53.7966 13.3947 53.7428 13.0865 53.7048 12.7434C53.6668 12.4003 53.6446 12.0381 53.6383 11.6569L54.1037 11.4568C53.9834 11.9078 53.7618 12.324 53.4388 12.7053C53.1222 13.0801 52.7138 13.382 52.2136 13.6107C51.7196 13.8332 51.1561 13.9443 50.5229 13.9443ZM51.5867 11.8284C51.9919 11.8284 52.3497 11.7395 52.66 11.5615C52.9703 11.3773 53.2077 11.1231 53.3723 10.7991C53.5434 10.475 53.6288 10.1065 53.6288 9.69349V8.37821L53.8662 8.51164C53.7143 8.71497 53.5244 8.87065 53.2964 8.97866C53.0748 9.0867 52.7739 9.17883 52.394 9.25506L51.6627 9.39804C51.1752 9.49333 50.8078 9.63947 50.5609 9.83647C50.3203 10.0335 50.2 10.3098 50.2 10.6656C50.2 11.0215 50.3298 11.3042 50.5894 11.5139C50.8491 11.7236 51.1815 11.8284 51.5867 11.8284Z" fill="black"/>
<path d="M37.457 3.61267H40.5154L43.1464 12.2382H42.2251L44.7515 3.61267H47.7245L44.2576 13.6679H41.0568L37.457 3.61267Z" fill="black"/>
<path d="M32.9587 13.9443C31.9646 13.9443 31.0907 13.7283 30.3373 13.2962C29.59 12.8642 29.0107 12.2478 28.5991 11.4472C28.1938 10.6466 27.9912 9.70938 27.9912 8.63555C27.9912 7.56172 28.1938 6.62768 28.5991 5.83343C29.0107 5.03282 29.59 4.41649 30.3373 3.98441C31.0907 3.55235 31.9646 3.3363 32.9587 3.3363C33.9528 3.3363 34.8235 3.55235 35.5707 3.98441C36.3179 4.41649 36.8941 5.03282 37.2993 5.83343C37.711 6.62768 37.9167 7.56172 37.9167 8.63555C37.9167 9.70938 37.711 10.6466 37.2993 11.4472C36.8941 12.2478 36.3179 12.8642 35.5707 13.2962C34.8235 13.7283 33.9528 13.9443 32.9587 13.9443ZM32.9587 11.7332C33.3767 11.7332 33.7344 11.6187 34.032 11.39C34.3296 11.1549 34.5575 10.8086 34.7158 10.3511C34.8742 9.88732 34.9533 9.3154 34.9533 8.63555C34.9533 7.62526 34.7792 6.8596 34.4309 6.33857C34.0826 5.81119 33.5919 5.5475 32.9587 5.5475C32.5408 5.5475 32.1799 5.66505 31.8759 5.90015C31.5783 6.12889 31.3503 6.47519 31.1921 6.93903C31.0338 7.39651 30.9546 7.96202 30.9546 8.63555C30.9546 9.30907 31.0338 9.87775 31.1921 10.3416C31.3503 10.8054 31.5783 11.1549 31.8759 11.39C32.1799 11.6187 32.5408 11.7332 32.9587 11.7332Z" fill="black"/>
<path d="M19.5781 0.000183105H22.5605V11.5379L22.0286 10.9184C22.0286 10.9184 23.5058 10.9184 26.0469 10.9184C28.5879 10.9184 28.2404 13.6676 28.2404 13.6676H19.5781V0.000183105Z" fill="black"/>
<mask id="mask0_10060_5021" style="mask-type:alpha" maskUnits="userSpaceOnUse" x="0" y="0" width="14" height="14">
<path fill-rule="evenodd" clip-rule="evenodd" d="M4.01901 0C6.23865 0 8.03802 1.81036 8.03802 4.04355V5.58036H9.37554C11.5952 5.58036 13.3945 7.39072 13.3945 9.62387C13.3945 11.8571 11.5952 13.6674 9.37554 13.6674H0V4.04355C0 1.81036 1.79937 0 4.01901 0Z" fill="url(#paint0_linear_10060_5021)"/>
</mask>
<g mask="url(#mask0_10060_5021)">
<g filter="url(#filter0_f_10060_5021)">
<path d="M5.87567 16.3935C10.8833 16.3935 14.9427 12.32 14.9427 7.29506C14.9427 2.27012 10.8833 -1.80341 5.87567 -1.80341C0.868062 -1.80341 -3.19141 2.27012 -3.19141 7.29506C-3.19141 12.32 0.868062 16.3935 5.87567 16.3935Z" fill="#4B73FF"/>
</g>
<g filter="url(#filter1_f_10060_5021)">
<path d="M6.87226 11.4006C13.2857 11.4006 18.4848 7.32708 18.4848 2.30214C18.4848 -2.7228 13.2857 -6.79633 6.87226 -6.79633C0.458857 -6.79633 -4.74023 -2.7228 -4.74023 2.30214C-4.74023 7.32708 0.458857 11.4006 6.87226 11.4006Z" fill="#FF66F4"/>
</g>
<g filter="url(#filter2_f_10060_5021)">
<path d="M8.76629 8.58107C13.7739 8.58107 17.8334 5.00363 17.8334 0.590642C17.8334 -3.82235 13.7739 -7.39978 8.76629 -7.39978C3.75869 -7.39978 -0.300781 -3.82235 -0.300781 0.590642C-0.300781 5.00363 3.75869 8.58107 8.76629 8.58107Z" fill="#FF0105"/>
</g>
<g filter="url(#filter3_f_10060_5021)">
<path d="M7.03398 7.7721C10.0456 7.7721 12.4869 5.32229 12.4869 2.3003C12.4869 -0.721699 10.0456 -3.17151 7.03398 -3.17151C4.02241 -3.17151 1.58105 -0.721699 1.58105 2.3003C1.58105 5.32229 4.02241 7.7721 7.03398 7.7721Z" fill="#FE7B02"/>
</g>
</g>
</g>
<defs>
<filter id="filter0_f_10060_5021" x="-48.336" y="-46.948" width="108.423" height="108.486" filterUnits="userSpaceOnUse" color-interpolation-filters="sRGB">
<feFlood flood-opacity="0" result="BackgroundImageFix"/>
<feBlend mode="normal" in="SourceGraphic" in2="BackgroundImageFix" result="shape"/>
<feGaussianBlur stdDeviation="22.5723" result="effect1_foregroundBlur_10060_5021"/>
</filter>
<filter id="filter1_f_10060_5021" x="-49.8848" y="-51.9409" width="113.514" height="108.486" filterUnits="userSpaceOnUse" color-interpolation-filters="sRGB">
<feFlood flood-opacity="0" result="BackgroundImageFix"/>
<feBlend mode="normal" in="SourceGraphic" in2="BackgroundImageFix" result="shape"/>
<feGaussianBlur stdDeviation="22.5723" result="effect1_foregroundBlur_10060_5021"/>
</filter>
<filter id="filter2_f_10060_5021" x="-45.4454" y="-52.5444" width="108.423" height="106.27" filterUnits="userSpaceOnUse" color-interpolation-filters="sRGB">
<feFlood flood-opacity="0" result="BackgroundImageFix"/>
<feBlend mode="normal" in="SourceGraphic" in2="BackgroundImageFix" result="shape"/>
<feGaussianBlur stdDeviation="22.5723" result="effect1_foregroundBlur_10060_5021"/>
</filter>
<filter id="filter3_f_10060_5021" x="-43.5635" y="-48.3161" width="101.195" height="101.233" filterUnits="userSpaceOnUse" color-interpolation-filters="sRGB">
<feFlood flood-opacity="0" result="BackgroundImageFix"/>
<feBlend mode="normal" in="SourceGraphic" in2="BackgroundImageFix" result="shape"/>
<feGaussianBlur stdDeviation="22.5723" result="effect1_foregroundBlur_10060_5021"/>
</filter>
<linearGradient id="paint0_linear_10060_5021" x1="4.50752" y1="2.40181" x2="8.61332" y2="13.6532" gradientUnits="userSpaceOnUse">
<stop offset="0.025" stop-color="#FF8E63"/>
<stop offset="0.56" stop-color="#FF7EB0"/>
<stop offset="0.95" stop-color="#4B73FF"/>
</linearGradient>
<clipPath id="clip0_10060_5021">
<rect width="82" height="14" fill="white"/>
</clipPath>
</defs>
</svg>
