<svg width="84" height="84" viewBox="0 0 84 84" fill="none" xmlns="http://www.w3.org/2000/svg">
<path d="M78.3194 34.8335C78.5301 34.8335 78.6937 34.9855 78.6937 35.1842V37.429H82.7506C82.9612 37.429 83.1249 37.581 83.1249 37.7798V38.9372C83.1249 39.1242 82.9612 39.288 82.7506 39.2997H78.6937V42.7136C78.6937 44.14 79.2083 44.7129 80.6578 44.7129H82.4815C82.6922 44.7129 82.8559 44.8649 82.8559 45.0637V46.221C82.8559 46.4081 82.6922 46.5718 82.4815 46.5718H80.3078C77.6413 46.5718 76.4025 45.3559 76.4025 42.7253V39.288H74.0058C73.7952 39.288 73.6314 39.136 73.6314 38.9372V37.7798C73.6314 37.5927 73.7952 37.429 74.0058 37.429H76.4025V35.1842C76.4025 34.9971 76.5661 34.8335 76.7768 34.8335H78.3194ZM70.8371 37.429C71.0476 37.429 71.2114 37.581 71.2114 37.7798V44.7129H74.0755C74.2861 44.7129 74.4498 44.8649 74.4498 45.0637V46.221C74.4498 46.4081 74.2861 46.5718 74.0755 46.5718H66.1254C65.9151 46.5718 65.7513 46.4198 65.7513 46.221V45.0637C65.7513 44.8766 65.9151 44.7129 66.1254 44.7129H68.9197V39.288H66.1254C65.9151 39.288 65.7513 39.136 65.7513 38.9372V37.7798C65.7513 37.5927 65.9151 37.429 66.1254 37.429H70.8371ZM70.9308 33.8981C71.1295 33.8981 71.2932 34.0501 71.3048 34.2489V35.7337C71.3048 35.9208 71.1412 36.0845 70.9308 36.0845H68.8262C68.6158 36.0845 68.4521 35.9325 68.4521 35.7337V34.2489C68.4521 34.0618 68.6158 33.8981 68.8262 33.8981H70.9308ZM63.9859 44.7129H61.6009V34.2489C61.6009 34.0501 61.4372 33.8981 61.2267 33.8981H56.55C56.3397 33.8981 56.176 34.0618 56.176 34.2489V35.4064C56.176 35.6052 56.3397 35.7572 56.55 35.7572H59.3093V44.7129H56.2111C56.0005 44.7129 55.8369 44.8766 55.8369 45.0637V46.221C55.8369 46.4198 56.0005 46.5718 56.2111 46.5718H63.9859C64.1964 46.5718 64.36 46.4081 64.36 46.221V45.0637C64.36 44.8649 64.1964 44.7129 63.9859 44.7129ZM51.2888 37.2536C50.4939 37.2536 49.921 37.429 49.4767 37.8499L48.9272 38.376H48.4244L48.2374 37.6979C48.1906 37.5459 48.0503 37.429 47.875 37.429H46.8228C46.6122 37.429 46.4486 37.5927 46.4486 37.7798V49.7519C46.4486 49.9506 46.6122 50.1027 46.8228 50.1027H48.366C48.5765 50.1027 48.7401 49.939 48.7401 49.7519V47.1564L48.5414 45.7651L49.0558 45.6482L49.6053 46.1743C50.0379 46.5718 50.5641 46.7705 51.3474 46.7705C53.6156 46.7705 54.9834 45.2038 54.9834 42.0121C54.9717 38.8203 53.6156 37.2536 51.2888 37.2536ZM50.529 44.8531C49.3715 44.8531 48.7285 44.2569 48.7285 43.1228V40.878C48.7285 39.7439 49.3598 39.1477 50.529 39.1477C51.9436 39.1477 52.5867 40.0363 52.5867 41.9887C52.5749 43.9646 51.9436 44.8531 50.529 44.8531ZM39.913 37.2536C36.9668 37.2536 35.3883 38.8203 35.3883 42.0004C35.3883 45.1922 36.955 46.7589 39.8546 46.7589C42.0993 46.7589 43.5491 45.8235 43.9349 44.2218C43.9934 43.9997 43.8063 43.7892 43.5725 43.7892H42.1695C42.0174 43.7892 41.8773 43.8828 41.8187 44.023C41.5732 44.7129 40.8717 45.0402 39.9248 45.0402C38.4515 45.0402 37.7501 44.2335 37.6565 42.3512H44.0519C44.4026 38.832 42.9412 37.2536 39.913 37.2536ZM37.7267 40.9247C37.9489 39.5452 38.6387 38.9021 39.9013 38.9021C41.2459 38.9021 41.8773 39.6154 41.9123 40.9247H37.7267ZM30.8286 37.8382L30.3025 38.3644H29.7764L29.6127 37.6979C29.5776 37.5342 29.4257 37.429 29.2503 37.429H25.8831C25.6727 37.429 25.509 37.5927 25.509 37.7798V38.9372C25.509 39.136 25.6727 39.288 25.8831 39.288H27.8707V44.7129H25.5558C25.3453 44.7129 25.1816 44.8766 25.1816 45.0637V46.221C25.1816 46.4198 25.3453 46.5718 25.5558 46.5718H32.8396C33.0501 46.5718 33.2137 46.4081 33.2137 46.221V45.0637C33.2137 44.8649 33.0501 44.7129 32.8396 44.7129H30.1622V40.878C30.1622 39.8025 30.7935 39.2411 32.0329 39.2411H34.0439C34.2543 39.2411 34.418 39.0775 34.418 38.8904V37.616C34.418 37.4173 34.2543 37.2653 34.0439 37.2653H32.8513C31.9744 37.2536 31.2847 37.4173 30.8286 37.8382Z" fill="black"/>
<path d="M0.875 33.4924C0.875 32.8213 1.41914 32.2772 2.09034 32.2772H7.76192C8.4331 32.2772 8.97724 32.8213 8.97724 33.4924V38.759H2.09034C1.41914 38.759 0.875 38.2148 0.875 37.5436V33.4924ZM8.97724 38.759H15.8642C16.5353 38.759 17.0795 39.3031 17.0795 39.9743V44.0254C17.0795 44.6966 16.5353 45.2407 15.8642 45.2407H8.97724V38.759ZM0.875 46.4561C0.875 45.7849 1.41914 45.2407 2.09034 45.2407H8.97724V50.5072C8.97724 51.1784 8.4331 51.7225 7.76192 51.7225H2.09034C1.41914 51.7225 0.875 51.1784 0.875 50.5072V46.4561Z" fill="#F26207"/>
</svg>
