<svg width="47" height="60" viewBox="0 0 47 60" fill="none" xmlns="http://www.w3.org/2000/svg">
<ellipse cx="13.2529" cy="22.2128" rx="13.2529" ry="13.2128" fill="#0052FF"/>
<ellipse cx="32.8877" cy="42.2767" rx="13.2529" ry="12.7234" fill="#0052FF"/>
<ellipse cx="13.2529" cy="42.2768" rx="13.2529" ry="12.7234" fill="#0052FF"/>
<ellipse cx="32.8877" cy="21.7234" rx="13.2529" ry="12.7234" fill="#0052FF"/>
<ellipse cx="23.0693" cy="29.5532" rx="13.2529" ry="12.7234" fill="#0052FF"/>
<path d="M12.3532 32.92C12.3532 30.6267 12.8199 28.6267 13.7532 26.92C14.6865 25.1867 15.9799 23.8533 17.6332 22.92C19.2865 21.96 21.1799 21.48 23.3132 21.48C26.0599 21.48 28.3265 22.1733 30.1132 23.56C31.9265 24.92 33.1399 26.84 33.7532 29.32H27.7132C27.3932 28.36 26.8465 27.6133 26.0732 27.08C25.3265 26.52 24.3932 26.24 23.2732 26.24C21.6732 26.24 20.4065 26.8267 19.4732 28C18.5399 29.1467 18.0732 30.7867 18.0732 32.92C18.0732 35.0267 18.5399 36.6667 19.4732 37.84C20.4065 38.9867 21.6732 39.56 23.2732 39.56C25.5399 39.56 27.0199 38.5467 27.7132 36.52H33.7532C33.1399 38.92 31.9265 40.8267 30.1132 42.24C28.2999 43.6533 26.0332 44.36 23.3132 44.36C21.1799 44.36 19.2865 43.8933 17.6332 42.96C15.9799 42 14.6865 40.6667 13.7532 38.96C12.8199 37.2267 12.3532 35.2133 12.3532 32.92Z" fill="white"/>
</svg>
