<svg width="74" height="73" viewBox="0 0 74 73" fill="none" xmlns="http://www.w3.org/2000/svg">
<rect y="7.60416" width="30.5091" height="57.7917" rx="15.2546" fill="#6772E5"/>
<rect x="42.7129" y="7.60416" width="30.5091" height="57.7917" rx="15.2546" fill="#6772E5"/>
<rect x="21.3574" width="30.5091" height="73" rx="15.2546" fill="#6772E5"/>
<path d="M35.0785 54.704C33.5238 54.704 32.0351 54.5793 30.6125 54.33C29.1898 54.0953 27.8698 53.7727 26.6525 53.362C25.4498 52.9513 24.3718 52.504 23.4185 52.02C22.4651 51.5213 21.6805 51.0227 21.0645 50.524L25.8605 42.296C26.5058 42.736 27.2098 43.1613 27.9725 43.572C28.7498 43.9827 29.5565 44.3493 30.3925 44.672C31.2285 44.9947 32.0645 45.2513 32.9005 45.442C33.7511 45.6327 34.5725 45.728 35.3645 45.728C36.0978 45.728 36.7138 45.64 37.2125 45.464C37.7111 45.288 38.0925 45.0167 38.3565 44.65C38.6205 44.2687 38.7525 43.7993 38.7525 43.242C38.7525 42.6847 38.6131 42.2007 38.3345 41.79C38.0705 41.3647 37.6451 40.954 37.0585 40.558C36.4718 40.162 35.7018 39.7293 34.7485 39.26C33.7951 38.7907 32.6365 38.2333 31.2725 37.588C30.2311 37.0893 29.2851 36.5247 28.4345 35.894C27.5985 35.2487 26.8798 34.5373 26.2785 33.76C25.6918 32.9827 25.2371 32.1393 24.9145 31.23C24.6065 30.3207 24.4525 29.3527 24.4525 28.326C24.4525 26.8887 24.7531 25.5027 25.3545 24.168C25.9558 22.8187 26.8138 21.6087 27.9285 20.538C29.0431 19.4673 30.3778 18.6167 31.9325 17.986C33.5018 17.3553 35.2471 17.04 37.1685 17.04C38.4005 17.04 39.7058 17.172 41.0845 17.436C42.4778 17.7 43.8271 18.0667 45.1325 18.536C46.4378 19.0053 47.5818 19.548 48.5645 20.164L44.7365 27.952C43.9738 27.512 43.1671 27.138 42.3165 26.83C41.4658 26.5073 40.6225 26.2653 39.7865 26.104C38.9505 25.928 38.1585 25.84 37.4105 25.84C36.6918 25.84 36.0758 25.928 35.5625 26.104C35.0491 26.2653 34.6531 26.5147 34.3745 26.852C34.0958 27.1747 33.9565 27.5853 33.9565 28.084C33.9565 28.4067 34.0225 28.6927 34.1545 28.942C34.3011 29.1767 34.5285 29.3967 34.8365 29.602C35.1591 29.8073 35.5845 30.0273 36.1125 30.262C36.6405 30.4967 37.2858 30.7827 38.0485 31.12C39.9405 31.956 41.5978 32.7627 43.0205 33.54C44.4431 34.3173 45.6238 35.1533 46.5625 36.048C47.5158 36.928 48.2271 37.9327 48.6965 39.062C49.1658 40.1913 49.4005 41.5187 49.4005 43.044C49.4005 45.4787 48.8138 47.5687 47.6405 49.314C46.4818 51.0593 44.8318 52.394 42.6905 53.318C40.5491 54.242 38.0118 54.704 35.0785 54.704Z" fill="white"/>
</svg>
