<svg width="57" height="57" viewBox="0 0 57 57" fill="none" xmlns="http://www.w3.org/2000/svg">
<rect width="39.9687" height="39.9688" rx="7" transform="matrix(0.69861 -0.715503 0.715622 0.698488 0 28.5977)" fill="#575664"/>
<path d="M17.8441 37.9887V23.8068H20.6048V37.9887H17.8441ZM19.2383 21.6186C18.7582 21.6186 18.3458 21.4586 18.0011 21.1385C17.6625 20.8123 17.4933 20.4245 17.4933 19.9752C17.4933 19.5197 17.6625 19.1319 18.0011 18.8118C18.3458 18.4856 18.7582 18.3225 19.2383 18.3225C19.7184 18.3225 20.1277 18.4856 20.4663 18.8118C20.811 19.1319 20.9833 19.5197 20.9833 19.9752C20.9833 20.4245 20.811 20.8123 20.4663 21.1385C20.1277 21.4586 19.7184 21.6186 19.2383 21.6186ZM27.5994 29.5682V37.9887H24.8387V23.8068H27.4886V26.1151H27.664C27.9902 25.3641 28.5011 24.7609 29.1967 24.3054C29.8984 23.8499 30.7817 23.6222 31.8465 23.6222C32.8129 23.6222 33.6593 23.8253 34.3856 24.2316C35.1119 24.6317 35.6751 25.2287 36.0752 26.0228C36.4753 26.8168 36.6754 27.7986 36.6754 28.9681V37.9887H33.9147V29.3005C33.9147 28.2725 33.647 27.4692 33.1114 26.8907C32.5759 26.3059 31.8404 26.0135 30.9048 26.0135C30.2646 26.0135 29.6952 26.152 29.1967 26.429C28.7042 26.706 28.3134 27.1122 28.0241 27.6478C27.7409 28.1771 27.5994 28.8173 27.5994 29.5682Z" fill="white"/>
<line x1="24.9824" y1="19.7317" x2="39.972" y2="19.7317" stroke="white" stroke-width="2.5"/>
</svg>
